<svg xmlns="http://www.w3.org/2000/svg" viewBox="0 0 32 32" width="800px" height="800px">
  <path d="M30 22.5v-21c0-.831-.669-1.5-1.5-1.5H8C4.687 0 2 2.688 2 6v20c0 3.313 2.688 6 6 6h20.5c.831 0 1.5-.669 1.5-1.5v-1c0-.469-.219-.894-.556-1.169-.262-.962-.262-3.706 0-4.669.337-.269.556-.694.556-1.163zM10 8.375c0-.206.169-.375.375-.375h13.25c.206 0 .375.169.375.375v1.25a.376.376 0 0 1-.375.375h-13.25A.376.376 0 0 1 10 9.625v-1.25zm0 4c0-.206.169-.375.375-.375h13.25c.206 0 .375.169.375.375v1.25a.376.376 0 0 1-.375.375h-13.25a.376.376 0 0 1-.375-.375v-1.25zM25.837 28H8c-1.106 0-2-.894-2-2 0-1.1.9-2 2-2h17.837c-.119 1.069-.119 2.931 0 4z"/>
</svg>
