<svg xmlns="http://www.w3.org/2000/svg" aria-hidden="true" style="position:absolute;width:0;height:0;overflow:hidden"><defs><symbol id="icon-book" viewBox="0 0 32 32"><path d="M30 22.5v-21c0-.831-.669-1.5-1.5-1.5H8C4.687 0 2 2.688 2 6v20c0 3.313 2.688 6 6 6h20.5c.831 0 1.5-.669 1.5-1.5v-1c0-.469-.219-.894-.556-1.169-.262-.962-.262-3.706 0-4.669.337-.269.556-.694.556-1.163zM10 8.375c0-.206.169-.375.375-.375h13.25c.206 0 .375.169.375.375v1.25a.376.376 0 0 1-.375.375h-13.25A.376.376 0 0 1 10 9.625v-1.25zm0 4c0-.206.169-.375.375-.375h13.25c.206 0 .375.169.375.375v1.25a.376.376 0 0 1-.375.375h-13.25a.376.376 0 0 1-.375-.375v-1.25zM25.837 28H8c-1.106 0-2-.894-2-2 0-1.1.9-2 2-2h17.837c-.119 1.069-.119 2.931 0 4z"/></symbol></defs></svg>

<svg stroke="currentColor" fill="currentColor" stroke-width="0" viewBox="0 0 448 512" height="1em" width="1em" xmlns="http://www.w3.org/2000/svg"><path d="M448 360V24c0-13.3-10.7-24-24-24H96C43 0 0 43 0 96v320c0 53 43 96 96 96h328c13.3 0 24-10.7 24-24v-16c0-7.5-3.5-14.3-8.9-18.7-4.2-15.4-4.2-59.3 0-74.7 5.4-4.3 8.9-11.1 8.9-18.6zM128 134c0-3.3 2.7-6 6-6h212c3.3 0 6 2.7 6 6v20c0 3.3-2.7 6-6 6H134c-3.3 0-6-2.7-6-6v-20zm0 64c0-3.3 2.7-6 6-6h212c3.3 0 6 2.7 6 6v20c0 3.3-2.7 6-6 6H134c-3.3 0-6-2.7-6-6v-20zm253.4 250H96c-17.7 0-32-14.3-32-32 0-17.6 14.4-32 32-32h285.4c-1.9 17.1-1.9 46.9 0 64z"></path></svg>
